<svg aria-hidden="true" style="position: absolute; width: 0; height: 0; overflow: hidden;" version="1.1" xmlns="http://www.w3.org/2000/svg" xmlns:xlink="http://www.w3.org/1999/xlink">
<defs>
<symbol id="icon-facebook" viewBox="0 0 15 32">
<path fill="#fff" style="fill: var(--color1, #fff)" d="M9.707 31.22v-15.611h4.318l0.573-5.379h-4.891l0.008-2.694c0-1.402 0.134-2.155 2.153-2.155h2.7v-5.381h-4.32c-5.187 0-7.014 2.61-7.014 6.999v3.23h-3.234v5.379h3.234v15.611h6.473z"></path>
</symbol>
<symbol id="icon-line-right" viewBox="0 0 44 32">
<path fill="none" opacity="0.5" stroke="#fff" style="stroke: var(--color1, #fff)" stroke-linejoin="round" stroke-linecap="round" stroke-miterlimit="4" stroke-width="4" d="M30 30l12-14-12-14M42 16h-40"></path>
</symbol>
<symbol id="icon-line-left" viewBox="0 0 84 32">
<path fill="none" stroke="#fff" style="stroke: var(--color1, #fff)" stroke-linejoin="round" stroke-linecap="round" stroke-miterlimit="4" stroke-width="4" d="M14 2l-12 14 12 14M2 16h80"></path>
</symbol>
<symbol id="icon-ask" viewBox="0 0 33 32">
<path fill="#9c69e2" style="fill: var(--color2, #9c69e2)" d="M0 11.034c0-6.094 4.94-11.034 11.034-11.034h11.034c6.094 0 11.034 4.94 11.034 11.034v4.414c0 6.094-4.94 11.034-11.034 11.034h-22.069v-15.448z"></path>
<path fill="#fff" style="fill: var(--color1, #fff)" d="M12.138 13.241c0 1.219-0.988 2.207-2.207 2.207s-2.207-0.988-2.207-2.207c0-1.219 0.988-2.207 2.207-2.207s2.207 0.988 2.207 2.207z"></path>
<path fill="#fff" style="fill: var(--color1, #fff)" d="M18.759 13.241c0 1.219-0.988 2.207-2.207 2.207s-2.207-0.988-2.207-2.207c0-1.219 0.988-2.207 2.207-2.207s2.207 0.988 2.207 2.207z"></path>
<path fill="#fff" style="fill: var(--color1, #fff)" d="M25.379 13.241c0 1.219-0.988 2.207-2.207 2.207s-2.207-0.988-2.207-2.207c0-1.219 0.988-2.207 2.207-2.207s2.207 0.988 2.207 2.207z"></path>
<path fill="#9c69e2" style="fill: var(--color2, #9c69e2)" d="M11.034 25.379h-11.034v2.723c0 1.715 1.871 2.774 3.342 1.892l7.692-4.616z"></path>
</symbol>
<symbol id="icon-twitter" viewBox="0 0 38 32">
<path fill="#fff" style="fill: var(--color1, #fff)" d="M17.82 9.32l-0.080-1.304c-0.238-3.38 1.848-6.464 5.148-7.66 1.214-0.426 3.272-0.48 4.62-0.106 0.528 0.16 1.53 0.69 2.244 1.17l1.292 0.876 1.426-0.452c0.792-0.24 1.848-0.638 2.324-0.904 0.448-0.24 0.844-0.372 0.844-0.292 0 0.452-0.976 1.994-1.794 2.846-1.11 1.196-0.792 1.302 1.452 0.504 1.346-0.452 1.372-0.452 1.108 0.054-0.16 0.266-0.978 1.198-1.848 2.048-1.48 1.464-1.558 1.622-1.558 2.846 0 1.888-0.898 5.824-1.794 7.98-1.664 4.040-5.228 8.218-8.792 10.32-5.016 2.95-11.694 3.696-17.318 1.966-1.874-0.584-5.094-2.072-5.094-2.34 0-0.080 0.976-0.186 2.164-0.212 2.612-0.060 5.043-0.784 7.147-2.008l-0.071 0.038 1.426-0.85-1.638-0.56c-2.322-0.796-4.408-2.632-4.936-4.36-0.16-0.56-0.106-0.586 1.372-0.586l1.532-0.026-1.294-0.612c-1.532-0.772-2.93-2.074-3.616-3.404-0.502-0.958-1.136-3.378-0.95-3.564 0.052-0.080 0.606 0.080 1.24 0.292 1.82 0.666 2.060 0.506 1.004-0.612-1.98-2.020-2.588-5.026-1.64-7.872l0.452-1.276 1.74 1.728c3.568 3.484 7.764 5.56 12.568 6.172l1.32 0.16z"></path>
</symbol>
<symbol id="icon-instagram" viewBox="0 0 32 32">
<path fill="#fff" style="fill: var(--color1, #fff)" d="M16.004 7.796c-0.004 0-0.009 0-0.014 0-4.523 0-8.19 3.667-8.19 8.19 0 0.005 0 0.010 0 0.015v-0.001c0 0.004 0 0.009 0 0.014 0 4.523 3.667 8.19 8.19 8.19 0.005 0 0.010 0 0.015 0h-0.001c0.004 0 0.008 0 0.012 0 4.523 0 8.19-3.667 8.19-8.19 0-0.005 0-0.010 0-0.015v0.001c0-0.004 0-0.009 0-0.014 0-4.523-3.667-8.19-8.19-8.19-0.004 0-0.008 0-0.013 0h0.001zM16.004 21.334c-2.944-0.006-5.328-2.39-5.334-5.333v-0.001c0.003-2.944 2.389-5.331 5.334-5.334h0c2.944 0.005 5.329 2.39 5.332 5.334v0c0 2.94-2.4 5.334-5.332 5.334zM26.454 7.46c0 0.002 0 0.004 0 0.006 0 1.054-0.854 1.908-1.908 1.908-0.001 0-0.003 0-0.004 0h0c-1.057 0-1.914-0.857-1.914-1.914s0.857-1.914 1.914-1.914c1.057 0 1.914 0.857 1.914 1.914v0zM31.888 9.402c-0.12-2.564-0.708-4.834-2.584-6.704-1.87-1.872-4.14-2.458-6.704-2.586-2.64-0.15-10.56-0.15-13.2 0-2.556 0.12-4.826 0.708-6.704 2.58-1.876 1.868-2.456 4.138-2.584 6.702-0.15 2.64-0.15 10.56 0 13.2 0.12 2.566 0.708 4.836 2.584 6.706 1.88 1.872 4.14 2.458 6.704 2.586 2.64 0.15 10.56 0.15 13.2 0 2.562-0.12 4.832-0.708 6.704-2.586 1.87-1.87 2.456-4.14 2.584-6.704 0.15-2.642 0.15-10.554 0-13.196zM28.476 25.432c-0.561 1.396-1.646 2.481-3.006 3.029l-0.036 0.013c-2.106 0.836-7.104 0.644-9.43 0.644-2.328 0-7.332 0.184-9.43-0.644-1.395-0.56-2.481-1.645-3.029-3.004l-0.013-0.036c-0.836-2.11-0.642-7.108-0.642-9.434 0-2.328-0.186-7.334 0.642-9.432 0.56-1.395 1.645-2.481 3.004-3.029l0.036-0.013c2.108-0.836 7.104-0.644 9.432-0.644 2.326 0 7.332-0.184 9.43 0.644 1.395 0.561 2.479 1.645 3.027 3.004l0.013 0.036c0.836 2.108 0.644 7.106 0.644 9.434s0.192 7.334-0.642 9.432z"></path>
</symbol>
</defs>
</svg>
